<?xml version="1.0" encoding="UTF-8"?>
<svg width="96" height="96" xmlns="http://www.w3.org/2000/svg">
    <path d="M48 0a48 48 0 1 0 48 48A48 48 0 0 0 48 0zm21.36 37.28c.04.4.04.79.04 1.19 0 12.13-9.23 26.1-26.1 26.1a25.96 25.96 0 0 1-14.03-4.1c.73.09 1.43.12 2.19.12a18.36 18.36 0 0 0 11.37-3.92c-4-.07-7.38-2.72-8.54-6.35a8.2 8.2 0 0 0 3.7-.14 9.18 9.18 0 0 1-7.35-9v-.11a9.25 9.25 0 0 0 4.15 1.15 9.17 9.17 0 0 1-2.83-12.25 26.05 26.05 0 0 0 18.9 9.59 9.17 9.17 0 0 1 15.63-8.37 18.07 18.07 0 0 0 5.82-2.22 9.14 9.14 0 0 1-4.03 5.06 18.4 18.4 0 0 0 5.27-1.43 19.66 19.66 0 0 1-4.58 4.73z" fill="#fff"/>
</svg>
